<?xml version="1.0" encoding="UTF-8"?>
<svg version="1.1" xmlns="http://www.w3.org/2000/svg" width="24" height="24">
<path d="M0 0 C3.75086838 0.11530698 3.75086838 0.11530698 5.9375 1.9375 C9.21792024 9.04507718 9.59080277 15.58560569 9.0625 23.375 C7.24133997 25.19616003 4.75578236 24.5073508 2.3359375 24.51171875 C1.58570313 24.50785156 0.83546875 24.50398438 0.0625 24.5 C-1.06285156 24.50580078 -1.06285156 24.50580078 -2.2109375 24.51171875 C-7.81088947 24.50161053 -7.81088947 24.50161053 -8.9375 23.375 C-9.55855321 16.01790812 -9.2181772 9.08684418 -5.9375 2.375 C-3.9375 0.375 -3.9375 0.375 0 0 Z M-1.9375 4.375 C-3.23383621 5.44145115 -3.23383621 5.44145115 -3 7.9375 C-2.979375 8.741875 -2.95875 9.54625 -2.9375 10.375 C-0.9575 10.375 1.0225 10.375 3.0625 10.375 C3.0625 8.725 3.0625 7.075 3.0625 5.375 C1.40635343 4.99281233 -0.26207024 4.66104898 -1.9375 4.375 Z " fill="#FABE09" transform="translate(11.9375,-0.375)"/>
<path d="M0 0 C1.875 0.3828125 1.875 0.3828125 3.875 2.0078125 C5.10818878 4.93663586 5.0895758 7.23570071 4.875 10.3828125 C3.555 10.3828125 2.235 10.3828125 0.875 10.3828125 C0.545 8.7328125 0.215 7.0828125 -0.125 5.3828125 C-1.445 5.3828125 -2.765 5.3828125 -4.125 5.3828125 C-4.455 7.0328125 -4.785 8.6828125 -5.125 10.3828125 C-6.445 10.3828125 -7.765 10.3828125 -9.125 10.3828125 C-9.3395758 7.23570071 -9.35818878 4.93663586 -8.125 2.0078125 C-5.41955964 -0.1903578 -3.4162076 -0.1883938 0 0 Z " fill="#455963" transform="translate(14.125,-0.3828125)"/>
<path d="M0 0 C0.99 0.33 1.98 0.66 3 1 C2.67 3.31 2.34 5.62 2 8 C1.34 8 0.68 8 0 8 C-0.38063221 5.6739143 -0.71269945 3.33944736 -1 1 C-0.67 0.67 -0.34 0.34 0 0 Z " fill="#485C62" transform="translate(11,13)"/>
</svg>
